<svg version="1.1" id="Layer_1" xmlns="http://www.w3.org/2000/svg" xmlns:xlink="http://www.w3.org/1999/xlink" x="0px" y="0px"
	 width="100%" viewBox="0 0 263 251" enable-background="new 0 0 263 251" xml:space="preserve">
<path fill="#E4D8C1" opacity="1.000000" stroke="none" 
	d="
M177.000000,252.000000 
	C118.000015,252.000000 59.500027,252.000000 1.000031,252.000000 
	C1.000021,168.333374 1.000021,84.666733 1.000010,1.000076 
	C88.666618,1.000051 176.333237,1.000051 263.999878,1.000025 
	C263.999939,84.666588 263.999939,168.333176 263.999969,251.999878 
	C235.166672,252.000000 206.333328,252.000000 177.000000,252.000000 
M184.493149,202.098312 
	C188.015961,199.911789 191.607742,197.825180 195.016037,195.472717 
	C195.937668,194.836594 197.063507,193.148636 196.807907,192.361786 
	C194.063599,183.913803 191.060959,175.549759 188.067719,166.987198 
	C178.830933,173.226273 169.029114,174.749176 158.909470,174.138596 
	C143.312317,173.197510 137.405472,166.629272 137.285721,150.884369 
	C137.278122,149.884949 137.284561,148.885422 137.284561,147.885956 
	C137.284531,113.404182 137.284531,78.922409 137.284515,44.440636 
	C137.284515,42.671417 137.284515,40.902195 137.284515,38.781845 
	C126.081451,40.217587 115.587395,41.562462 104.510170,42.982071 
	C104.510170,49.560085 104.510170,55.754993 104.510170,62.402092 
	C82.423744,57.962612 62.336529,61.132690 43.388607,73.091881 
	C49.012966,81.772072 54.376060,90.049042 59.804359,98.426651 
	C72.639427,90.889824 85.693413,88.787941 99.632889,92.520317 
	C103.346626,93.514694 104.886353,95.053360 104.846764,99.319496 
	C104.630417,122.635239 104.469772,145.963593 105.026794,169.270020 
	C105.376678,183.909439 112.552193,195.145569 126.039246,201.265488 
	C144.996933,209.867783 164.385590,209.533310 184.493149,202.098312 
M151.107361,77.028778 
	C151.042389,77.856712 150.929382,78.684082 150.919739,79.512657 
	C150.805054,89.374657 154.901962,96.927055 163.728317,101.416191 
	C172.164093,105.706688 180.560715,104.935547 188.145233,99.329590 
	C196.144592,93.417023 198.716232,85.133087 196.989960,75.529854 
	C195.172333,65.418335 185.618317,57.669067 174.888641,57.321095 
	C163.548676,56.953331 154.421173,64.263519 151.107361,77.028778 
z"/>
<path fill="#1B1B44" opacity="1.000000" stroke="none" 
	d="
M184.134247,202.230057 
	C164.385590,209.533310 144.996933,209.867783 126.039246,201.265488 
	C112.552193,195.145569 105.376678,183.909439 105.026794,169.270020 
	C104.469772,145.963593 104.630417,122.635239 104.846764,99.319496 
	C104.886353,95.053360 103.346626,93.514694 99.632889,92.520317 
	C85.693413,88.787941 72.639427,90.889824 59.804359,98.426651 
	C54.376060,90.049042 49.012966,81.772072 43.388607,73.091881 
	C62.336529,61.132690 82.423744,57.962612 104.510170,62.402092 
	C104.510170,55.754993 104.510170,49.560085 104.510170,42.982071 
	C115.587395,41.562462 126.081451,40.217587 137.284515,38.781845 
	C137.284515,40.902195 137.284515,42.671417 137.284515,44.440636 
	C137.284531,78.922409 137.284531,113.404182 137.284561,147.885956 
	C137.284561,148.885422 137.278122,149.884949 137.285721,150.884369 
	C137.405472,166.629272 143.312317,173.197510 158.909470,174.138596 
	C169.029114,174.749176 178.830933,173.226273 188.067719,166.987198 
	C191.060959,175.549759 194.063599,183.913803 196.807907,192.361786 
	C197.063507,193.148636 195.937668,194.836594 195.016037,195.472717 
	C191.607742,197.825180 188.015961,199.911789 184.134247,202.230057 
z"/>
<path fill="#1C1C45" opacity="1.000000" stroke="none" 
	d="
M151.211288,76.614876 
	C154.421173,64.263519 163.548676,56.953331 174.888641,57.321095 
	C185.618317,57.669067 195.172333,65.418335 196.989960,75.529854 
	C198.716232,85.133087 196.144592,93.417023 188.145233,99.329590 
	C180.560715,104.935547 172.164093,105.706688 163.728317,101.416191 
	C154.901962,96.927055 150.805054,89.374657 150.919739,79.512657 
	C150.929382,78.684082 151.042389,77.856712 151.211288,76.614876 
z"/>
</svg>