<?xml version="1.0" encoding="UTF-8" standalone="no"?>
<svg
   version="1.1"
   id="Layer_1"
   x="0px"
   y="0px"
   width="100%"
   viewBox="0 0 1024 256"
   enable-background="new 0 0 1024 256"
   xml:space="preserve"
   sodipodi:docname="file_final_2.svg"
   inkscape:version="1.4.2 (f4327f4, 2025-05-13)"
   xmlns:inkscape="http://www.inkscape.org/namespaces/inkscape"
   xmlns:sodipodi="http://sodipodi.sourceforge.net/DTD/sodipodi-0.dtd"
   xmlns="http://www.w3.org/2000/svg"
   xmlns:svg="http://www.w3.org/2000/svg"><sodipodi:namedview
   id="namedview1"
   pagecolor="#ffffff"
   bordercolor="#000000"
   borderopacity="0.25"
   inkscape:showpageshadow="2"
   inkscape:pageopacity="0.0"
   inkscape:pagecheckerboard="0"
   inkscape:deskcolor="#d1d1d1"
   inkscape:zoom="1.6683301"
   inkscape:cx="657.24405"
   inkscape:cy="141.15912"
   inkscape:window-width="2560"
   inkscape:window-height="1369"
   inkscape:window-x="-8"
   inkscape:window-y="-8"
   inkscape:window-maximized="1"
   inkscape:current-layer="Layer_1" /><defs
   id="defs15" />
<path
   fill="#000000"
   opacity="1.000000"
   stroke="none"
   d=" M863.251221,112.049812   C863.250610,129.692856 863.106323,146.843903 863.337830,163.989883   C863.403809,168.877045 861.614014,170.731049 856.939148,170.154907   C856.775146,170.134689 856.606445,170.151688 856.439941,170.152802   C847.107483,170.214890 847.107483,170.214905 845.268799,161.191376   C832.132935,172.585907 817.156799,173.214310 801.699524,168.163986   C788.063599,163.708755 779.308594,154.211624 777.990967,139.585770   C776.752563,125.839569 782.972961,115.392830 794.866760,108.557426   C804.131226,103.233116 814.257324,101.841400 824.792236,103.122887   C832.575500,104.069672 839.499634,106.982651 845.331055,112.528023   C847.188416,103.937790 850.586243,101.574738 859.820129,102.783562   C865.845398,103.572327 862.203735,108.578018 863.251221,112.049812  M823.071716,119.293732   C816.716309,118.938454 810.447571,119.093193 804.631897,122.202530   C798.659851,125.395454 795.459045,130.458649 795.547791,137.121338   C795.636597,143.785645 798.837585,148.958282 805.079529,151.692261   C815.288696,156.163940 825.471069,156.110962 835.144043,150.244690   C845.089661,144.213165 845.401489,130.674835 835.941162,123.878746   C832.354736,121.302345 828.304504,119.921715 823.071716,119.293732  z"
   id="path1"
   style="fill:#1c1c45;fill-opacity:1" />
<path
   fill="#000000"
   opacity="1.000000"
   stroke="none"
   d=" M613.628784,158.355179   C599.164673,141.004227 603.319946,118.783974 623.014832,108.399910   C637.839905,100.583427 653.112427,100.528877 668.054016,108.105278   C679.028259,113.669945 685.671814,122.578613 686.311401,135.277176   C686.999268,148.932770 680.325256,158.485016 669.023376,165.065979   C651.725342,175.138443 628.339783,172.273178 613.628784,158.355179  M658.908630,151.524338   C671.547180,144.286407 672.925842,131.720444 661.940918,123.886040   C652.740906,117.324646 637.377319,117.625641 628.571716,124.539795   C620.396423,130.959030 619.806274,141.544357 627.755005,148.210556   C636.962769,155.932663 647.379028,156.396255 658.908630,151.524338  z"
   id="path2"
   style="fill:#1c1c45;fill-opacity:1" />
<path
   fill="#000000"
   opacity="1.000000"
   stroke="none"
   d=" M966.490234,122.065224   C961.517212,124.399315 956.515991,123.103836 951.595276,123.191032   C950.917542,123.203049 950.125671,122.532120 949.555908,121.997101   C942.930603,115.775726 930.915344,114.098747 922.771423,118.299644   C921.117981,119.152565 919.422424,120.013130 919.396973,122.216293   C919.369446,124.600220 921.022766,125.812103 922.932068,126.575050   C929.021057,129.008179 935.563110,129.424744 941.915466,130.693924   C946.970276,131.703857 952.072754,132.577423 957.026123,133.967453   C963.589600,135.809311 968.270142,139.755951 969.119873,147.008591   C969.954285,154.129944 967.135437,159.660080 961.475403,163.860077   C954.470093,169.058273 946.221497,170.422989 937.885925,170.910355   C928.500671,171.459091 919.251709,170.287994 910.585876,166.264984   C905.130493,163.732376 901.592957,159.547333 900.103638,153.657974   C899.297607,150.470520 900.347107,148.856354 903.735718,148.889801   C907.067017,148.922699 910.399109,148.863602 913.730652,148.879700   C914.902771,148.885361 916.258240,148.887161 916.854248,150.052124   C920.851685,157.865707 928.475403,156.882233 935.234131,157.302948   C938.939697,157.533600 942.909363,156.965363 946.415588,155.159348   C948.522766,154.073944 950.669922,152.834106 950.570740,150.061539   C950.470825,147.269073 948.261047,146.163162 946.012512,145.378189   C939.690979,143.171265 933.020569,142.575378 926.498047,141.296097   C921.272644,140.271225 916.036987,139.313431 911.109314,137.161285   C904.832153,134.419785 901.396790,129.503235 901.074829,122.835495   C900.770569,116.535828 903.743835,111.591003 909.199768,108.338982   C918.987854,102.504616 929.736816,102.068489 940.656372,103.113274   C946.482910,103.670753 952.164307,105.066833 957.351379,107.912437   C962.773132,110.886780 966.472412,115.114227 966.490234,122.065224  z"
   id="path3"
   style="fill:#1c1c45;fill-opacity:1" />
<path
   fill="#000000"
   opacity="1.000000"
   stroke="none"
   d=" M325.333374,123.384384   C323.242340,123.280388 321.827454,123.210274 320.454071,121.733444   C314.720581,115.568192 300.289154,114.086189 293.162354,118.697342   C291.727539,119.625679 290.358673,120.689774 290.483246,122.607567   C290.619995,124.713013 292.171051,125.798782 293.919434,126.511795   C300.001068,128.991943 306.543579,129.414276 312.899475,130.675583   C317.793762,131.646866 322.720734,132.508743 327.547333,133.752274   C333.911316,135.391876 338.896606,138.842407 340.086151,145.815201   C341.344696,153.192474 338.945496,159.257828 332.798645,163.740051   C324.856689,169.531250 315.631653,170.848846 306.234039,170.939758   C298.055542,171.018890 289.929840,170.049164 282.356445,166.498688   C276.599060,163.799622 272.650848,159.617462 271.227509,153.248581   C270.609406,150.482712 271.551636,149.024857 274.386505,148.967010   C277.884399,148.895645 281.384338,148.901016 284.883240,148.915451   C286.071503,148.920349 287.408569,149.089600 287.994659,150.187469   C291.979095,157.650726 299.390350,156.845139 306.006409,157.404099   C309.211761,157.674911 312.630768,156.753708 315.790833,155.822037   C318.573975,155.001480 321.890625,154.021179 321.662811,150.071564   C321.457520,146.512238 318.424896,145.569199 315.712769,144.925354   C309.891479,143.543396 303.988647,142.504913 298.118652,141.328262   C292.411560,140.184265 286.631470,139.322891 281.360901,136.604507   C270.799652,131.157394 269.235779,117.732452 278.291962,110.002411   C283.180023,105.830093 289.090576,104.251984 295.268463,103.368713   C305.859528,101.854485 316.216156,102.641441 326.175385,106.746544   C333.967987,109.958580 337.946411,115.560181 337.557556,122.663925   C333.742493,124.057877 329.717560,123.122467 325.333374,123.384384  z"
   id="path4"
   style="fill:#1c1c45;fill-opacity:1" />
<path
   fill="#000000"
   opacity="1.000000"
   stroke="none"
   d=" M739.478394,103.110825   C751.915588,105.153511 762.172974,109.953194 768.710144,120.824333   C769.739685,122.536430 770.785767,124.248299 770.701050,126.886208   C766.209045,128.728928 761.260986,128.897491 756.380493,129.340668   C754.353455,129.524765 753.659363,127.674011 752.533875,126.527977   C743.079163,116.900696 724.067078,116.629074 714.744629,125.998772   C707.914124,132.863907 708.439636,142.656265 715.967285,148.783142   C726.422180,157.292557 743.086853,156.543732 752.471863,146.885910   C754.611145,144.684540 756.606750,144.030777 759.505127,144.570206   C763.213318,145.260315 767.063660,145.238113 770.984619,146.955276   C769.613342,153.910583 765.184265,158.547043 760.034851,162.467804   C744.994202,173.919800 720.193176,173.617554 705.321899,162.003189   C685.652100,146.641190 689.880554,116.926262 713.176453,106.963707   C721.444702,103.427780 730.063843,102.017296 739.478394,103.110825  z"
   id="path5"
   style="fill:#1c1c45;fill-opacity:1" />
<path
   fill="#000000"
   opacity="1.000000"
   stroke="none"
   d=" M208.859070,135.193649   C208.872482,136.494431 208.871857,137.326813 208.887619,138.158920   C209.084427,148.555206 212.044830,152.996674 220.156769,155.071289   C229.911514,157.566055 239.245926,154.103714 243.670502,146.394653   C245.208084,143.715652 245.783478,140.876099 245.761230,137.793564   C245.691544,128.139633 245.839493,118.483582 245.710587,108.830917   C245.664246,105.360832 246.642029,103.347687 250.468155,103.662476   C251.125488,103.716553 251.805298,103.659142 252.460098,103.558258   C265.526611,101.545273 263.052155,103.651436 263.127167,113.459694   C263.255768,130.270844 263.050293,147.084991 263.244110,163.894913   C263.299469,168.697632 261.504730,170.680023 256.799835,170.147141   C256.142487,170.072678 255.469345,170.137787 254.803513,170.138199   C246.592957,170.143219 246.592957,170.143204 245.173920,162.290054   C235.383255,172.293869 223.598999,172.465439 211.344223,169.208786   C199.037781,165.938370 191.753601,156.308121 191.634003,143.596802   C191.527527,132.278778 191.738663,120.956924 191.554138,109.640930   C191.488312,105.604927 192.416122,103.760269 196.987610,103.496437   C208.513229,102.831268 208.431671,102.571617 208.449814,113.767128   C208.461121,120.753326 208.710236,127.739143 208.859070,135.193649  z"
   id="path6"
   style="fill:#1c1c45;fill-opacity:1" />
<path
   fill="#000000"
   opacity="1.000000"
   stroke="none"
   d=" M373.509277,119.159531   C370.817841,120.080566 371.007080,122.058411 370.997711,123.860222   C370.963989,130.358475 370.854645,136.861069 371.039490,143.354446   C371.239563,150.381363 374.145966,153.196198 381.199310,153.637955   C385.965881,153.936478 390.330780,152.250351 394.906830,150.525528   C397.597748,154.003952 398.257507,158.141830 399.468933,162.030426   C400.098450,164.051239 398.549774,165.028656 397.185699,166.022125   C388.232513,172.542725 370.512360,172.608978 361.602631,166.105148   C356.214661,162.172089 353.817291,156.660797 353.724640,150.146835   C353.601410,141.483261 353.572754,132.815598 353.699677,124.152573   C353.748932,120.790634 353.055817,118.580261 349.107117,118.830544   C344.991882,119.091377 343.381561,116.996178 343.784241,113.021103   C343.917969,111.701187 343.897125,110.351036 343.801270,109.025230   C343.531860,105.299255 344.919098,103.264214 348.941650,103.716133   C352.254517,104.088303 353.665527,102.871063 353.725342,99.261177   C353.898163,88.828140 354.047821,88.830620 364.460114,87.779808   C370.755463,87.144478 370.898041,87.283707 370.965515,93.653969   C371.086761,105.100731 369.811951,103.590500 381.210815,103.725800   C382.710358,103.743607 384.210266,103.730705 385.710022,103.731491   C394.977448,103.736305 397.124664,106.644897 394.927551,115.831635   C394.297852,118.464546 392.465149,118.745674 390.436920,118.800720   C384.941956,118.949844 379.443970,118.987831 373.509277,119.159531  z"
   id="path7"
   style="fill:#1c1c45;fill-opacity:1" />
<path
   fill="#000000"
   opacity="1.000000"
   stroke="none"
   d=" M91.949974,88.728966   C105.298508,86.991890 105.288406,86.991882 105.280243,99.976295   C105.271545,113.799789 105.262474,127.623344 105.295700,141.446777   C105.318802,151.053604 110.042099,154.970703 119.633377,153.427963   C122.920158,152.899292 126.079002,151.938354 129.236389,150.298492   C131.946091,153.856110 132.531967,158.028732 133.858215,161.867111   C134.623978,164.083313 132.744431,165.159668 131.294724,166.226639   C121.986877,173.077194 103.252029,172.464264 94.582855,164.956223   C89.550087,160.597519 87.980743,154.679932 87.891487,148.336411   C87.757942,138.844986 87.713814,129.347748 87.906517,119.858566   C87.982979,116.093529 86.449409,114.524345 82.897034,113.843803   C78.388901,112.980171 74.182785,113.985367 70.273125,115.748840   C67.069435,117.193863 65.296005,116.495171 63.850208,113.648140   C63.700115,113.352585 63.499226,113.082375 63.316666,112.803841   C57.166611,103.420540 57.619461,102.321503 68.773361,99.201355   C74.772194,97.523277 80.872810,97.401962 86.756088,98.146805   C89.444160,95.275269 85.300545,89.454636 91.949974,88.728966  z"
   id="path8"
   style="fill:#1c1c45;fill-opacity:1" />
<path
   fill="#000000"
   opacity="1.000000"
   stroke="none"
   d=" M141.987167,133.000000   C142.001328,124.507332 142.047913,116.514534 142.014038,108.522072   C142.000610,105.351540 143.010406,103.335670 146.622391,103.661530   C147.279175,103.720779 147.953171,103.627724 148.616409,103.571648   C158.216278,102.760056 158.216156,102.758698 159.952255,112.047852   C165.554230,107.012466 171.987259,104.270981 179.147125,103.144142   C185.388916,102.161797 186.225159,102.783096 186.294235,108.931519   C186.311066,110.429970 186.192383,111.938034 186.321838,113.425507   C186.624435,116.902367 184.970596,118.233429 181.638840,118.199135   C176.379593,118.144997 171.431137,119.427536 166.836899,122.034103   C161.736938,124.927597 159.269302,129.252533 159.312363,135.149078   C159.385345,145.139404 159.206528,155.132645 159.373093,165.120667   C159.434357,168.794800 158.044724,170.057770 154.443451,170.199341   C141.962906,170.689865 141.980347,170.789093 142.005600,158.477325   C142.022675,150.151611 141.995010,141.825775 141.987167,133.000000  z"
   id="path9"
   style="fill:#1c1c45;fill-opacity:1" />
<path
   fill="#000000"
   opacity="1.000000"
   stroke="none"
   d=" M874.726501,159.956970   C874.723022,138.144791 874.850098,116.823357 874.618225,95.505829   C874.567017,90.794006 875.799561,88.786217 880.737854,88.149086   C892.167664,86.674431 892.141174,86.404282 892.140198,97.771950   C892.138367,119.258415 892.143372,140.744904 892.108826,162.231323   C892.096069,170.132385 892.048645,170.129105 883.950806,170.153412   C873.212891,170.185654 874.887024,170.201202 874.726501,159.956970  z"
   id="path10"
   style="fill:#1c1c45;fill-opacity:1" />
<path
   fill="#000000"
   opacity="1.000000"
   stroke="none"
   d=" M580.647095,123.999893   C580.649902,113.522697 580.742065,103.544296 580.606079,93.569008   C580.561340,90.283363 581.660645,89.000725 585.045837,88.477333   C597.397217,86.567673 597.378418,86.419868 597.375977,98.518227   C597.371582,120.468040 597.265503,142.418610 597.436829,164.367035   C597.470520,168.681519 596.157532,170.248856 591.773254,170.193604   C578.329590,170.024185 580.803650,170.691605 580.685364,159.419800   C580.563232,147.780975 580.651367,136.139969 580.647095,123.999893  z"
   id="path11"
   style="fill:#1c1c45;fill-opacity:1" />
<path
   fill="#000000"
   opacity="1.000000"
   stroke="none"
   d=" M512.880920,139.635117   C520.977722,135.515488 528.579163,135.971909 536.033325,140.306808   C538.384094,141.673889 540.265991,143.518509 541.578186,145.907028   C543.122559,148.718262 544.716370,151.891754 543.274170,154.856583   C541.885925,157.710617 538.481995,156.253159 535.993286,156.315796   C528.718933,156.498886 521.437012,156.380890 514.046387,156.380890   C515.148315,161.168076 519.314209,163.904846 524.570068,163.519211   C527.227722,163.324203 530.030029,162.875793 532.002502,160.987183   C535.096985,158.024338 537.860107,158.848907 540.809692,160.914520   C541.187988,163.512787 539.289551,164.616364 537.833069,165.811356   C530.522766,171.809402 517.802368,171.819763 510.392517,165.931442   C501.003296,158.470184 501.946106,147.053879 512.880920,139.635117  M521.806946,150.638031   C525.885071,150.409836 530.027466,151.136124 534.533875,150.008530   C532.457214,144.782425 528.308228,143.997589 523.949402,144.039185   C519.629395,144.080414 515.525452,144.932510 513.600159,149.823792   C516.271606,150.866821 518.614685,150.575821 521.806946,150.638031  z"
   id="path12"
   style="fill:#1c1c45;fill-opacity:1" />
<path
   fill="#000000"
   opacity="1.000000"
   stroke="none"
   d=" M495.131897,139.695694   C499.134552,142.596848 500.539001,146.284927 500.438446,150.759216   C500.326324,155.748413 500.375854,160.741959 500.404938,165.733322   C500.419006,168.144333 500.006409,170.027390 496.953644,170.043839   C493.868530,170.060471 492.885620,168.379578 492.892944,165.624847   C492.903961,161.461533 492.889923,157.297775 492.839966,153.134766   C492.763580,146.763870 490.267639,143.866058 484.594971,143.489441   C478.873657,143.109589 473.946533,146.986801 473.487732,152.667496   C473.140076,156.971863 473.247345,161.323639 473.347900,165.649750   C473.413727,168.479721 472.579407,170.100739 469.445038,170.035278   C466.547028,169.974731 465.793640,168.328018 465.799225,165.811539   C465.824677,154.320404 465.833130,142.829117 465.797852,131.338028   C465.790070,128.805237 466.533264,127.153580 469.417603,127.105576   C472.501556,127.054260 473.477142,128.664017 473.359131,131.502167   C473.244110,134.268280 473.334167,137.042908 473.334167,140.688095   C480.914917,135.905228 487.831055,135.550873 495.131897,139.695694  z"
   id="path13"
   style="fill:#1c1c45;fill-opacity:1" />
<path
   fill="#000000"
   opacity="1.000000"
   stroke="none"
   d=" M441.631653,163.834229   C440.090179,159.045441 441.051208,154.523056 440.781097,150.068130   C440.625824,147.507492 441.156219,145.156693 437.709290,143.624329   C435.103882,142.466064 435.383545,139.354095 438.158325,137.791260   C439.594910,136.982132 440.791565,136.337021 440.732910,134.596390   C440.552582,129.243607 443.806091,129.266724 448.249786,130.008743   C446.878265,136.630569 450.749207,137.569199 455.965149,137.197693   C458.319885,137.029968 460.217102,137.860382 460.201996,140.829391   C460.185852,144.000488 457.990601,143.904816 455.765747,144.196884   C453.320099,144.517929 449.329224,142.707581 448.800598,146.015289   C448.016174,150.923767 446.840332,156.384003 449.938293,161.001129   C451.638672,163.535355 454.747009,162.985779 457.322479,162.261353   C459.816132,161.559921 461.100342,162.441818 461.890167,164.674942   C462.695557,166.952057 461.410767,168.031967 459.624756,168.952087   C453.293884,172.213593 445.530243,170.179016 441.631653,163.834229  z"
   id="path14"
   style="fill:#1c1c45;fill-opacity:1" />
<path
   fill="#000000"
   opacity="1.000000"
   stroke="none"
   d=" M125.278389,96.569290   C132.490143,99.300293 135.283646,103.699364 134.342041,110.312469   C133.603912,115.496597 128.858185,119.748978 123.347305,120.164238   C118.273285,120.546570 113.024109,116.785805 111.301216,111.533813   C108.601654,103.304649 115.330009,95.863663 125.278389,96.569290  z"
   id="path15"
   style="fill:#1c1c45;fill-opacity:1" />
<rect
   style="fill:#00005c;fill-opacity:1"
   id="rect15"
   width="2.3976071"
   height="0.59940177"
   x="1091.5106"
   y="45.554535" /></svg>
